<?xml version="1.0" standalone="no"?>
<!DOCTYPE svg PUBLIC "-//W3C//DTD SVG 1.1//EN" "http://www.w3.org/Graphics/SVG/1.1/DTD/svg11.dtd" >
<svg>
<metadata>
Created by FontForge 20110222 at Thu Jul  7 17:38:08 2016
 By Rezo Zero Webserver user,,,
Copyright (c) 2014 by Type Dynamic. All rights reserved.
</metadata>
<defs>
<font id="Sailec-MediumItalic" horiz-adv-x="274" >
  <font-face 
    font-family="Sailec Medium"
    font-weight="500"
    font-style="italic"
    font-stretch="normal"
    units-per-em="1000"
    panose-1="0 0 6 0 0 0 0 0 0 0"
    ascent="750"
    descent="-250"
    x-height="513"
    cap-height="748"
    bbox="-259 -264 1252 997"
    underline-thickness="50"
    underline-position="-50"
    slope="-10"
    stemh="119"
    stemv="106"
    unicode-range="U+000D-FB02"
  />
<missing-glyph horiz-adv-x="233" 
 />
    <glyph glyph-name=".notdef" horiz-adv-x="233" 
 />
    <glyph glyph-name="Aacute" unicode="&#xc1;" horiz-adv-x="758" 
d="M533 795h-107l165 147h157zM701 0h-129l-42 174h-329l-103 -174h-130l448 748h101zM258 267h247l-71 297z" />
    <glyph glyph-name="Acircumflex" unicode="&#xc2;" horiz-adv-x="758" 
d="M650 795h-93l-60 84l-93 -84h-98l144 150h108zM701 0h-129l-42 174h-329l-103 -174h-130l448 748h101zM258 267h247l-71 297z" />
    <glyph glyph-name="Adieresis" unicode="&#xc4;" horiz-adv-x="758" 
d="M412 936c41 0 67 -32 60 -71c-6 -32 -34 -56 -65 -56c-40 0 -67 31 -60 71c6 32 34 56 65 56zM580 936c41 0 67 -32 60 -71c-6 -32 -34 -56 -65 -56c-40 0 -67 31 -60 71c6 32 35 56 65 56zM701 0h-129l-42 174h-329l-103 -174h-130l448 748h101zM258 267h247l-71 297z
" />
    <glyph glyph-name="Agrave" unicode="&#xc0;" horiz-adv-x="758" 
d="M526 795h-102l-164 147h152zM701 0h-129l-42 174h-329l-103 -174h-130l448 748h101zM258 267h247l-71 297z" />
    <glyph glyph-name="Aring" unicode="&#xc5;" horiz-adv-x="758" 
d="M505 997c64 0 109 -46 97 -109c-9 -56 -58 -95 -113 -95c-66 0 -111 46 -100 109c10 57 60 95 116 95zM502 940c-27 0 -49 -18 -53 -43c-4 -26 13 -47 41 -47s48 18 52 43c4 26 -12 47 -40 47zM701 0h-129l-42 174h-329l-103 -174h-130l448 748h101zM258 267h247l-71 297
z" />
    <glyph glyph-name="Atilde" unicode="&#xc3;" horiz-adv-x="758" 
d="M429 946c67 0 73 -58 121 -58c36 0 56 21 61 50h62c-1 -77 -57 -134 -117 -134c-68 0 -75 57 -122 57c-35 0 -55 -22 -61 -51h-62c1 77 58 136 118 136zM701 0h-129l-42 174h-329l-103 -174h-130l448 748h101zM258 267h247l-71 297z" />
    <glyph glyph-name="AE" unicode="&#xc6;" horiz-adv-x="1021" 
d="M695 643l-36 -206h307l-18 -103h-308l-40 -228h352l-19 -106h-470l25 140h-261l-118 -140h-148l633 748h471l-19 -105h-351zM506 246l51 289l-242 -289h191z" />
    <glyph glyph-name="B" unicode="B" horiz-adv-x="695" 
d="M170 748h290c132 0 218 -77 194 -214c-14 -77 -53 -121 -101 -146c47 -20 92 -82 75 -183c-25 -138 -133 -205 -268 -205h-322zM271 643l-37 -209h177c60 0 109 28 123 104c12 69 -29 105 -101 105h-162zM216 332l-40 -226h183c71 0 137 31 151 113
c13 80 -37 113 -102 113h-192z" />
    <glyph glyph-name="C" unicode="C" horiz-adv-x="816" 
d="M490 758c183 0 315 -108 316 -281l-123 -9c-3 119 -85 184 -198 184c-152 0 -268 -109 -291 -285c-24 -178 73 -271 208 -271c122 0 218 64 255 179l122 -14c-51 -170 -201 -271 -375 -271c-218 0 -362 145 -329 391c32 239 206 377 415 377z" />
    <glyph glyph-name="Ccedilla" unicode="&#xc7;" horiz-adv-x="816" 
d="M402 96c122 0 218 64 255 179l122 -14c-50 -168 -197 -268 -368 -271l-13 -37c59 -7 97 -42 86 -109c-11 -65 -76 -97 -136 -97c-50 0 -80 9 -104 21l24 66c15 -11 39 -17 65 -17c30 0 63 3 69 36c5 29 -16 46 -50 46c-17 0 -32 -1 -41 -3l42 97
c-189 21 -308 162 -278 388c32 239 206 377 415 377c183 0 315 -108 316 -281l-123 -9c-3 119 -85 184 -198 184c-152 0 -268 -109 -291 -285c-24 -178 73 -271 208 -271z" />
    <glyph glyph-name="D" unicode="D" horiz-adv-x="801" 
d="M170 748h279c209 0 355 -141 317 -381c-37 -238 -203 -367 -411 -367h-317zM271 646l-96 -544h188c145 0 264 95 288 277c24 176 -62 267 -207 267h-173z" />
    <glyph glyph-name="E" unicode="E" horiz-adv-x="597" 
d="M621 643h-351l-36 -206h307l-18 -103h-308l-40 -228h352l-19 -106h-470l132 748h470z" />
    <glyph glyph-name="Eacute" unicode="&#xc9;" horiz-adv-x="597" 
d="M472 795h-107l165 147h157zM621 643h-351l-36 -206h307l-18 -103h-308l-40 -228h352l-19 -106h-470l132 748h470z" />
    <glyph glyph-name="Ecircumflex" unicode="&#xca;" horiz-adv-x="597" 
d="M589 795h-93l-60 84l-93 -84h-98l144 150h108zM621 643h-351l-36 -206h307l-18 -103h-308l-40 -228h352l-19 -106h-470l132 748h470z" />
    <glyph glyph-name="Edieresis" unicode="&#xcb;" horiz-adv-x="597" 
d="M351 936c41 0 67 -32 60 -71c-6 -32 -34 -56 -65 -56c-40 0 -67 31 -60 71c6 32 34 56 65 56zM519 936c41 0 67 -32 60 -71c-6 -32 -34 -56 -65 -56c-40 0 -67 31 -60 71c6 32 35 56 65 56zM621 643h-351l-36 -206h307l-18 -103h-308l-40 -228h352l-19 -106h-470l132 748
h470z" />
    <glyph glyph-name="Egrave" unicode="&#xc8;" horiz-adv-x="597" 
d="M465 795h-102l-164 147h152zM621 643h-351l-36 -206h307l-18 -103h-308l-40 -228h352l-19 -106h-470l132 748h470z" />
    <glyph glyph-name="F" unicode="F" horiz-adv-x="585" 
d="M621 643h-351l-37 -209h290l-19 -105h-289l-58 -329h-119l132 748h470z" />
    <glyph glyph-name="G" unicode="G" horiz-adv-x="827" 
d="M449 392h349l-6 -43c-30 -222 -179 -359 -390 -359c-217 0 -360 145 -327 391c32 239 206 377 414 377c177 0 303 -99 315 -265l-122 -13c-5 110 -83 172 -196 172c-152 0 -268 -98 -292 -285c-24 -180 66 -271 208 -271c119 0 214 61 251 191h-219z" />
    <glyph glyph-name="H" unicode="H" horiz-adv-x="757" 
d="M628 0h-119l59 333h-352l-59 -333h-119l132 748h119l-55 -309h353l54 309h119z" />
    <glyph glyph-name="I" unicode="I" horiz-adv-x="286" 
d="M157 0h-119l132 748h119z" />
    <glyph glyph-name="Iacute" unicode="&#xcd;" horiz-adv-x="286" 
d="M295 795h-107l165 147h157zM157 0h-119l132 748h119z" />
    <glyph glyph-name="Icircumflex" unicode="&#xce;" horiz-adv-x="286" 
d="M412 795h-93l-60 84l-93 -84h-98l144 150h108zM157 0h-119l132 748h119z" />
    <glyph glyph-name="Idieresis" unicode="&#xcf;" horiz-adv-x="286" 
d="M174 936c41 0 67 -32 60 -71c-6 -32 -34 -56 -65 -56c-40 0 -67 31 -60 71c6 32 34 56 65 56zM342 936c41 0 67 -32 60 -71c-6 -32 -34 -56 -65 -56c-40 0 -67 31 -60 71c6 32 35 56 65 56zM157 0h-119l132 748h119z" />
    <glyph glyph-name="Igrave" unicode="&#xcc;" horiz-adv-x="286" 
d="M288 795h-102l-164 147h152zM157 0h-119l132 748h119z" />
    <glyph glyph-name="J" unicode="J" horiz-adv-x="594" 
d="M603 748l-88 -501c-29 -166 -135 -257 -283 -257c-151 0 -232 99 -214 250l120 5c-11 -97 24 -149 102 -149c80 0 139 55 157 152l88 500h118z" />
    <glyph glyph-name="K" unicode="K" horiz-adv-x="695" 
d="M404 429l230 -429h-133l-185 344l-117 -109l-42 -235h-119l132 748h119l-61 -335l350 335h160z" />
    <glyph glyph-name="L" unicode="L" horiz-adv-x="591" 
d="M175 106h354l-18 -106h-473l132 748h119z" />
    <glyph glyph-name="M" unicode="M" horiz-adv-x="977" 
d="M848 0h-118l84 478l-329 -472h-79l-164 479l-85 -485h-119l132 748h100l201 -568l399 568h110z" />
    <glyph glyph-name="N" unicode="N" horiz-adv-x="755" 
d="M627 0h-101l-276 528l-93 -528h-119l132 748h100l277 -529l93 529h119z" />
    <glyph glyph-name="Ntilde" unicode="&#xd1;" horiz-adv-x="755" 
d="M415 946c67 0 73 -58 121 -58c36 0 56 21 61 50h62c-1 -77 -57 -134 -117 -134c-68 0 -75 57 -122 57c-35 0 -55 -22 -61 -51h-62c1 77 58 136 118 136zM627 0h-101l-276 528l-93 -528h-119l132 748h100l277 -529l93 529h119z" />
    <glyph glyph-name="O" unicode="O" horiz-adv-x="870" 
d="M490 758c221 0 374 -150 346 -391c-26 -234 -201 -377 -413 -377c-223 0 -375 151 -347 391c26 234 201 377 414 377zM489 652c-155 0 -277 -107 -294 -285c-17 -171 83 -271 229 -271c154 0 276 107 293 285c17 172 -83 271 -228 271z" />
    <glyph glyph-name="Oacute" unicode="&#xd3;" horiz-adv-x="870" 
d="M575 795h-107l165 147h157zM490 758c221 0 374 -150 346 -391c-26 -234 -201 -377 -413 -377c-223 0 -375 151 -347 391c26 234 201 377 414 377zM489 652c-155 0 -277 -107 -294 -285c-17 -171 83 -271 229 -271c154 0 276 107 293 285c17 172 -83 271 -228 271z" />
    <glyph glyph-name="Ocircumflex" unicode="&#xd4;" horiz-adv-x="870" 
d="M692 795h-93l-60 84l-93 -84h-98l144 150h108zM490 758c221 0 374 -150 346 -391c-26 -234 -201 -377 -413 -377c-223 0 -375 151 -347 391c26 234 201 377 414 377zM489 652c-155 0 -277 -107 -294 -285c-17 -171 83 -271 229 -271c154 0 276 107 293 285
c17 172 -83 271 -228 271z" />
    <glyph glyph-name="Odieresis" unicode="&#xd6;" horiz-adv-x="870" 
d="M454 936c41 0 67 -32 60 -71c-6 -32 -34 -56 -65 -56c-40 0 -67 31 -60 71c6 32 34 56 65 56zM622 936c41 0 67 -32 60 -71c-6 -32 -34 -56 -65 -56c-40 0 -67 31 -60 71c6 32 35 56 65 56zM490 758c221 0 374 -150 346 -391c-26 -234 -201 -377 -413 -377
c-223 0 -375 151 -347 391c26 234 201 377 414 377zM489 652c-155 0 -277 -107 -294 -285c-17 -171 83 -271 229 -271c154 0 276 107 293 285c17 172 -83 271 -228 271z" />
    <glyph glyph-name="Ograve" unicode="&#xd2;" horiz-adv-x="870" 
d="M568 795h-102l-164 147h152zM490 758c221 0 374 -150 346 -391c-26 -234 -201 -377 -413 -377c-223 0 -375 151 -347 391c26 234 201 377 414 377zM489 652c-155 0 -277 -107 -294 -285c-17 -171 83 -271 229 -271c154 0 276 107 293 285c17 172 -83 271 -228 271z" />
    <glyph glyph-name="Oslash" unicode="&#xd8;" horiz-adv-x="870" 
d="M846 736l-84 -89c59 -68 88 -163 74 -280c-26 -234 -201 -377 -413 -377c-85 0 -160 22 -219 63l-88 -94l-66 55l92 98c-53 66 -79 158 -66 269c26 234 201 377 414 377c80 0 150 -19 207 -55l83 88zM195 367c-7 -67 4 -123 30 -167l393 419c-36 22 -80 33 -129 33
c-155 0 -277 -107 -294 -285zM717 381c7 74 -7 134 -37 179l-397 -423c38 -27 86 -41 141 -41c154 0 276 107 293 285z" />
    <glyph glyph-name="Otilde" unicode="&#xd5;" horiz-adv-x="870" 
d="M471 946c67 0 73 -58 121 -58c36 0 56 21 61 50h62c-1 -77 -57 -134 -117 -134c-68 0 -75 57 -122 57c-35 0 -55 -22 -61 -51h-62c1 77 58 136 118 136zM490 758c221 0 374 -150 346 -391c-26 -234 -201 -377 -413 -377c-223 0 -375 151 -347 391c26 234 201 377 414 377
zM489 652c-155 0 -277 -107 -294 -285c-17 -171 83 -271 229 -271c154 0 276 107 293 285c17 172 -83 271 -228 271z" />
    <glyph glyph-name="OE" unicode="&#x152;" horiz-adv-x="1208" 
d="M882 643l-36 -206h307l-18 -103h-304c-3 -21 -8 -41 -15 -61l-29 -167h352l-19 -106h-470l11 61c-68 -46 -150 -71 -238 -71c-223 0 -375 151 -347 391c26 234 201 377 414 377c115 0 211 -41 274 -113l18 103h470l-19 -105h-351zM424 96c136 0 246 83 283 224l10 58v3
c17 172 -83 271 -228 271c-155 0 -277 -107 -294 -285c-17 -171 83 -271 229 -271z" />
    <glyph glyph-name="P" unicode="P" horiz-adv-x="657" 
d="M170 748h285c135 0 234 -86 213 -241c-18 -148 -124 -225 -259 -225h-202l-50 -282h-119zM270 643l-44 -255h178c71 0 136 39 146 128c10 83 -41 127 -112 127h-168z" />
    <glyph glyph-name="Q" unicode="Q" horiz-adv-x="873" 
d="M490 758c221 0 374 -150 346 -391c-12 -104 -53 -190 -113 -254l90 -107l-86 -78l-96 114c-61 -34 -132 -52 -208 -52c-223 0 -375 151 -347 391c26 234 201 377 414 377zM529 344l120 -143c37 47 61 108 68 180c17 172 -83 271 -228 271c-155 0 -277 -107 -294 -285
c-17 -171 83 -271 229 -271c49 0 95 11 135 31l-118 140z" />
    <glyph glyph-name="R" unicode="R" horiz-adv-x="695" 
d="M665 508c-20 -112 -81 -181 -167 -209l114 -299h-126l-109 286h-170l-50 -286h-119l132 748h281c135 0 234 -85 214 -240zM545 518c10 81 -40 125 -111 125h-164l-44 -251h175c71 0 129 38 144 126z" />
    <glyph glyph-name="S" unicode="S" horiz-adv-x="659" 
d="M393 758c159 0 258 -82 244 -215l-121 -5c6 75 -42 117 -121 117c-96 0 -153 -49 -162 -115c-10 -74 42 -90 143 -115c157 -37 252 -85 233 -221c-22 -150 -149 -214 -292 -214c-169 0 -283 82 -267 226l121 4c-7 -79 54 -127 145 -127c90 0 159 35 171 115
c11 71 -48 93 -153 119c-134 33 -241 72 -221 219c17 115 111 212 280 212z" />
    <glyph glyph-name="T" unicode="T" horiz-adv-x="687" 
d="M737 643h-266l-113 -643h-119l113 643h-266l19 105h651z" />
    <glyph glyph-name="U" unicode="U" horiz-adv-x="770" 
d="M779 748l-82 -461c-34 -193 -164 -297 -351 -297c-190 0 -295 111 -261 304l80 454h119l-81 -457c-24 -131 36 -195 151 -195c123 0 204 71 226 198l80 454h119z" />
    <glyph glyph-name="Uacute" unicode="&#xda;" horiz-adv-x="770" 
d="M533 795h-107l165 147h157zM779 748l-82 -461c-34 -193 -164 -297 -351 -297c-190 0 -295 111 -261 304l80 454h119l-81 -457c-24 -131 36 -195 151 -195c123 0 204 71 226 198l80 454h119z" />
    <glyph glyph-name="Ucircumflex" unicode="&#xdb;" horiz-adv-x="770" 
d="M650 795h-93l-60 84l-93 -84h-98l144 150h108zM779 748l-82 -461c-34 -193 -164 -297 -351 -297c-190 0 -295 111 -261 304l80 454h119l-81 -457c-24 -131 36 -195 151 -195c123 0 204 71 226 198l80 454h119z" />
    <glyph glyph-name="Udieresis" unicode="&#xdc;" horiz-adv-x="770" 
d="M412 936c41 0 67 -32 60 -71c-6 -32 -34 -56 -65 -56c-40 0 -67 31 -60 71c6 32 34 56 65 56zM580 936c41 0 67 -32 60 -71c-6 -32 -34 -56 -65 -56c-40 0 -67 31 -60 71c6 32 35 56 65 56zM779 748l-82 -461c-34 -193 -164 -297 -351 -297c-190 0 -295 111 -261 304
l80 454h119l-81 -457c-24 -131 36 -195 151 -195c123 0 204 71 226 198l80 454h119z" />
    <glyph glyph-name="Ugrave" unicode="&#xd9;" horiz-adv-x="770" 
d="M526 795h-102l-164 147h152zM779 748l-82 -461c-34 -193 -164 -297 -351 -297c-190 0 -295 111 -261 304l80 454h119l-81 -457c-24 -131 36 -195 151 -195c123 0 204 71 226 198l80 454h119z" />
    <glyph glyph-name="V" unicode="V" horiz-adv-x="761" 
d="M385 0h-100l-182 748h124l134 -564l334 564h137z" />
    <glyph glyph-name="W" unicode="W" horiz-adv-x="1119" 
d="M797 0h-100l-87 539l-277 -539h-101l-129 748h124l85 -551l280 551h97l85 -551l281 551h136z" />
    <glyph glyph-name="X" unicode="X" horiz-adv-x="707" 
d="M457 374l182 -374h-132l-144 294l-244 -294h-143l316 389l-170 359h132l133 -282l231 282h144z" />
    <glyph glyph-name="Y" unicode="Y" horiz-adv-x="715" 
d="M426 301l-54 -301h-119l55 301l-205 447h131l145 -323l259 323h150z" />
    <glyph glyph-name="Ydieresis" unicode="&#x178;" horiz-adv-x="715" 
d="M385 936c41 0 67 -32 60 -71c-6 -32 -34 -56 -65 -56c-40 0 -67 31 -60 71c6 32 34 56 65 56zM553 936c41 0 67 -32 60 -71c-6 -32 -34 -56 -65 -56c-40 0 -67 31 -60 71c6 32 35 56 65 56zM426 301l-54 -301h-119l55 301l-205 447h131l145 -323l259 323h150z" />
    <glyph glyph-name="Z" unicode="Z" horiz-adv-x="621" 
d="M650 658l-482 -552h393l-18 -106h-551l16 89l482 554h-374l18 105h532z" />
    <glyph glyph-name="a" unicode="a" horiz-adv-x="547" 
d="M315 522c124 0 190 -79 166 -211l-55 -311h-104l9 49c-33 -35 -74 -59 -144 -59c-100 0 -174 60 -157 159c18 102 116 142 223 148l115 6l3 18c11 67 -11 105 -69 105c-69 0 -104 -45 -113 -91l-110 8c16 90 106 179 236 179zM352 215l-92 -5c-66 -4 -113 -20 -119 -69
c-5 -38 24 -57 67 -57c62 0 125 37 140 111z" />
    <glyph glyph-name="aacute" unicode="&#xe1;" horiz-adv-x="547" 
d="M379 596h-91l129 191h130zM315 522c124 0 190 -79 166 -211l-55 -311h-104l9 49c-33 -35 -74 -59 -144 -59c-100 0 -174 60 -157 159c18 102 116 142 223 148l115 6l3 18c11 67 -11 105 -69 105c-69 0 -104 -45 -113 -91l-110 8c16 90 106 179 236 179zM352 215l-92 -5
c-66 -4 -113 -20 -119 -69c-5 -38 24 -57 67 -57c62 0 125 37 140 111z" />
    <glyph glyph-name="acircumflex" unicode="&#xe2;" horiz-adv-x="547" 
d="M508 597h-93l-58 98l-96 -98h-98l149 173h108zM315 522c124 0 190 -79 166 -211l-55 -311h-104l9 49c-33 -35 -74 -59 -144 -59c-100 0 -174 60 -157 159c18 102 116 142 223 148l115 6l3 18c11 67 -11 105 -69 105c-69 0 -104 -45 -113 -91l-110 8
c16 90 106 179 236 179zM352 215l-92 -5c-66 -4 -113 -20 -119 -69c-5 -38 24 -57 67 -57c62 0 125 37 140 111z" />
    <glyph glyph-name="adieresis" unicode="&#xe4;" horiz-adv-x="547" 
d="M267 743c40 0 67 -32 60 -70c-6 -33 -35 -56 -66 -56c-40 0 -66 31 -59 70c5 32 34 56 65 56zM435 743c41 0 67 -32 60 -70c-6 -33 -34 -56 -66 -56c-40 0 -66 31 -59 70c5 32 34 56 65 56zM315 522c124 0 190 -79 166 -211l-55 -311h-104l9 49c-33 -35 -74 -59 -144 -59
c-100 0 -174 60 -157 159c18 102 116 142 223 148l115 6l3 18c11 67 -11 105 -69 105c-69 0 -104 -45 -113 -91l-110 8c16 90 106 179 236 179zM352 215l-92 -5c-66 -4 -113 -20 -119 -69c-5 -38 24 -57 67 -57c62 0 125 37 140 111z" />
    <glyph glyph-name="agrave" unicode="&#xe0;" horiz-adv-x="547" 
d="M377 596h-86l-100 191h125zM315 522c124 0 190 -79 166 -211l-55 -311h-104l9 49c-33 -35 -74 -59 -144 -59c-100 0 -174 60 -157 159c18 102 116 142 223 148l115 6l3 18c11 67 -11 105 -69 105c-69 0 -104 -45 -113 -91l-110 8c16 90 106 179 236 179zM352 215l-92 -5
c-66 -4 -113 -20 -119 -69c-5 -38 24 -57 67 -57c62 0 125 37 140 111z" />
    <glyph glyph-name="aring" unicode="&#xe5;" horiz-adv-x="547" 
d="M364 809c72 0 121 -51 109 -120c-12 -63 -69 -107 -131 -107c-73 0 -122 51 -109 121c11 63 68 106 131 106zM355 744c-28 0 -51 -18 -55 -46s14 -50 45 -50c28 0 50 15 54 44c4 28 -14 52 -44 52zM315 522c124 0 190 -79 166 -211l-55 -311h-104l9 49
c-33 -35 -74 -59 -144 -59c-100 0 -174 60 -157 159c18 102 116 142 223 148l115 6l3 18c11 67 -11 105 -69 105c-69 0 -104 -45 -113 -91l-110 8c16 90 106 179 236 179zM352 215l-92 -5c-66 -4 -113 -20 -119 -69c-5 -38 24 -57 67 -57c62 0 125 37 140 111z" />
    <glyph glyph-name="atilde" unicode="&#xe3;" horiz-adv-x="547" 
d="M285 747c67 0 74 -58 121 -58c36 0 56 21 61 50h63c-1 -77 -58 -135 -118 -135c-68 0 -75 58 -122 58c-35 0 -55 -22 -61 -51h-62c1 77 58 136 118 136zM315 522c124 0 190 -79 166 -211l-55 -311h-104l9 49c-33 -35 -74 -59 -144 -59c-100 0 -174 60 -157 159
c18 102 116 142 223 148l115 6l3 18c11 67 -11 105 -69 105c-69 0 -104 -45 -113 -91l-110 8c16 90 106 179 236 179zM352 215l-92 -5c-66 -4 -113 -20 -119 -69c-5 -38 24 -57 67 -57c62 0 125 37 140 111z" />
    <glyph glyph-name="ae" unicode="&#xe6;" horiz-adv-x="900" 
d="M643 522c151 0 241 -102 214 -257l-9 -51h-375c-6 -84 41 -127 119 -127c65 0 110 28 131 72l113 -8c-34 -99 -131 -161 -246 -161c-88 0 -157 33 -197 93c-49 -56 -119 -93 -203 -93c-113 0 -176 65 -160 158c18 103 116 142 220 148l118 7l3 18c11 65 -11 105 -69 105
c-69 0 -104 -47 -113 -91l-110 8c16 90 103 179 228 179c70 0 121 -23 149 -68c50 44 115 68 187 68zM642 426c-78 0 -137 -44 -156 -124h263c9 78 -28 124 -107 124zM352 215l-102 -6c-58 -4 -100 -20 -108 -64c-7 -39 19 -58 66 -58c58 0 126 28 142 117z" />
    <glyph glyph-name="b" unicode="b" horiz-adv-x="652" 
d="M284 777l-59 -319c34 43 85 64 160 64c148 0 240 -107 216 -274c-21 -159 -130 -258 -274 -258c-88 0 -145 39 -170 89l-15 -79h-106l136 777h112zM361 425c-86 0 -150 -53 -165 -148l-5 -30c-16 -107 42 -161 126 -161c87 0 158 58 172 166c16 111 -44 173 -128 173z
" />
    <glyph glyph-name="c" unicode="c" horiz-adv-x="584" 
d="M332 522c128 0 217 -76 219 -197l-109 -7c0 68 -43 108 -110 108c-88 0 -155 -65 -170 -177c-14 -105 38 -162 117 -162c74 0 126 41 145 101l109 -11c-35 -118 -133 -187 -253 -187c-152 0 -252 102 -230 274c22 165 139 258 282 258z" />
    <glyph glyph-name="ccedilla" unicode="&#xe7;" horiz-adv-x="584" 
d="M279 87c74 0 126 41 145 101l109 -11c-34 -116 -128 -184 -245 -187l-13 -36c59 -7 97 -42 86 -109c-11 -65 -76 -97 -136 -97c-50 0 -80 9 -104 21l24 66c15 -11 39 -17 65 -17c30 0 63 3 69 36c5 29 -16 46 -50 46c-17 0 -32 -1 -41 -3l42 97
c-123 20 -199 118 -180 270c22 165 139 258 282 258c128 0 217 -76 219 -197l-109 -7c0 68 -43 108 -110 108c-88 0 -155 -65 -170 -177c-14 -105 38 -162 117 -162z" />
    <glyph glyph-name="d" unicode="d" horiz-adv-x="652" 
d="M527 0h-105l11 62c-35 -49 -88 -72 -166 -72c-148 0 -240 107 -216 274c21 159 130 258 274 258c85 0 140 -34 164 -79l62 334h112zM335 426c-87 0 -158 -58 -172 -166c-16 -111 44 -173 128 -173c86 0 150 53 165 148l5 30c16 107 -42 161 -126 161z" />
    <glyph glyph-name="e" unicode="e" horiz-adv-x="594" 
d="M333 522c151 0 241 -102 214 -257l-9 -51h-375c-6 -84 41 -127 119 -127c65 0 110 28 131 72l113 -8c-34 -99 -131 -161 -246 -161c-155 0 -253 103 -229 274c23 163 138 258 282 258zM332 426c-78 0 -137 -44 -156 -124h263c9 78 -28 124 -107 124z" />
    <glyph glyph-name="eacute" unicode="&#xe9;" horiz-adv-x="594" 
d="M402 596h-91l129 191h130zM333 522c151 0 241 -102 214 -257l-9 -51h-375c-6 -84 41 -127 119 -127c65 0 110 28 131 72l113 -8c-34 -99 -131 -161 -246 -161c-155 0 -253 103 -229 274c23 163 138 258 282 258zM332 426c-78 0 -137 -44 -156 -124h263
c9 78 -28 124 -107 124z" />
    <glyph glyph-name="ecircumflex" unicode="&#xea;" horiz-adv-x="594" 
d="M284 597h-98l149 173h108l88 -173h-93l-58 98zM333 522c151 0 241 -102 214 -257l-9 -51h-375c-6 -84 41 -127 119 -127c65 0 110 28 131 72l113 -8c-34 -99 -131 -161 -246 -161c-155 0 -253 103 -229 274c23 163 138 258 282 258zM332 426c-78 0 -137 -44 -156 -124
h263c9 78 -28 124 -107 124z" />
    <glyph glyph-name="edieresis" unicode="&#xeb;" horiz-adv-x="594" 
d="M284 617c-40 0 -66 31 -59 70c5 32 34 56 65 56c40 0 67 -32 60 -70c-6 -33 -35 -56 -66 -56zM452 617c-40 0 -66 31 -59 70c5 32 34 56 65 56c41 0 67 -32 60 -70c-6 -33 -34 -56 -66 -56zM333 522c151 0 241 -102 214 -257l-9 -51h-375c-6 -84 41 -127 119 -127
c65 0 110 28 131 72l113 -8c-34 -99 -131 -161 -246 -161c-155 0 -253 103 -229 274c23 163 138 258 282 258zM332 426c-78 0 -137 -44 -156 -124h263c9 78 -28 124 -107 124z" />
    <glyph glyph-name="egrave" unicode="&#xe8;" horiz-adv-x="594" 
d="M314 596l-100 191h125l61 -191h-86zM333 522c151 0 241 -102 214 -257l-9 -51h-375c-6 -84 41 -127 119 -127c65 0 110 28 131 72l113 -8c-34 -99 -131 -161 -246 -161c-155 0 -253 103 -229 274c23 163 138 258 282 258zM332 426c-78 0 -137 -44 -156 -124h263
c9 78 -28 124 -107 124z" />
    <glyph glyph-name="f" unicode="f" horiz-adv-x="359" 
d="M390 782c24 0 36 -1 48 -4l-17 -96c-8 2 -18 2 -26 2c-62 0 -109 -40 -119 -101l-13 -70h126l-17 -97h-126l-73 -416h-112l73 416h-97l17 97h97l14 75c21 123 111 194 225 194z" />
    <glyph glyph-name="g" unicode="g" horiz-adv-x="646" 
d="M326 522c88 0 145 -39 170 -89l15 80h106l-95 -541c-25 -148 -139 -236 -288 -236c-154 0 -227 80 -227 185l110 3c0 -60 48 -93 118 -93c90 0 158 53 174 140l15 81c-30 -41 -81 -62 -156 -62c-148 0 -240 107 -216 274c21 159 130 258 274 258zM336 426
c-87 0 -158 -58 -172 -166c-16 -111 44 -173 128 -173c86 0 150 53 165 148l5 30c16 107 -42 161 -126 161z" />
    <glyph glyph-name="h" unicode="h" horiz-adv-x="609" 
d="M284 777l-58 -316c26 33 78 61 150 61c111 0 193 -80 168 -219l-53 -303h-113l52 295c14 77 -19 123 -89 123c-76 0 -129 -56 -141 -126l-53 -292h-112l137 777h112z" />
    <glyph glyph-name="i" unicode="i" 
d="M217 761c44 0 72 -35 65 -77c-6 -36 -38 -63 -73 -63c-43 0 -72 34 -65 77c7 36 40 63 73 63zM147 0h-112l91 513h112z" />
    <glyph glyph-name="dotlessi" unicode="&#x131;" 
d="M147 0h-112l91 513h112z" />
    <glyph glyph-name="iacute" unicode="&#xed;" 
d="M242 596h-91l129 191h130zM147 0h-112l91 513h112z" />
    <glyph glyph-name="icircumflex" unicode="&#xee;" 
d="M371 597h-93l-58 98l-96 -98h-98l149 173h108zM147 0h-112l91 513h112z" />
    <glyph glyph-name="idieresis" unicode="&#xef;" 
d="M130 743c40 0 67 -32 60 -70c-6 -33 -35 -56 -66 -56c-40 0 -66 31 -59 70c5 32 34 56 65 56zM298 743c41 0 67 -32 60 -70c-6 -33 -34 -56 -66 -56c-40 0 -66 31 -59 70c5 32 34 56 65 56zM147 0h-112l91 513h112z" />
    <glyph glyph-name="igrave" unicode="&#xec;" 
d="M240 596h-86l-100 191h125zM147 0h-112l91 513h112z" />
    <glyph glyph-name="j" unicode="j" 
d="M217 761c44 0 72 -35 65 -77c-6 -36 -38 -63 -73 -63c-43 0 -72 34 -65 77c7 36 39 63 73 63zM240 513l-102 -581c-22 -123 -110 -193 -222 -193c-24 0 -36 2 -48 4l17 96c9 -1 18 -2 27 -2c60 0 103 39 114 100l101 576h113z" />
    <glyph glyph-name="k" unicode="k" horiz-adv-x="557" 
d="M202 311l230 202h152l-257 -228l172 -285h-130l-125 209l-69 -59l-28 -150h-112l137 777h112z" />
    <glyph glyph-name="l" unicode="l" 
d="M147 0h-112l137 777h112z" />
    <glyph glyph-name="m" unicode="m" horiz-adv-x="933" 
d="M703 522c121 0 186 -80 164 -206l-56 -316h-112l52 295c13 77 -20 123 -83 123c-70 0 -119 -49 -135 -112l-54 -306h-112l52 295c13 77 -20 123 -83 123c-76 0 -125 -55 -137 -126l-52 -292h-112l91 513h103l-12 -71c27 43 79 80 154 80c80 0 135 -35 157 -94
c38 56 96 94 175 94z" />
    <glyph glyph-name="n" unicode="n" horiz-adv-x="613" 
d="M376 522c111 0 193 -80 168 -219l-53 -303h-113l52 295c14 77 -19 123 -89 123c-76 0 -129 -56 -141 -126l-53 -292h-112l91 513h103l-10 -61c27 38 82 70 157 70z" />
    <glyph glyph-name="ntilde" unicode="&#xf1;" horiz-adv-x="613" 
d="M326 747c67 0 74 -58 121 -58c36 0 56 21 61 50h63c-1 -77 -58 -135 -118 -135c-68 0 -75 58 -122 58c-35 0 -55 -22 -61 -51h-62c1 77 58 136 118 136zM376 522c111 0 193 -80 168 -219l-53 -303h-113l52 295c14 77 -19 123 -89 123c-76 0 -129 -56 -141 -126l-53 -292
h-112l91 513h103l-10 -61c27 38 82 70 157 70z" />
    <glyph glyph-name="o" unicode="o" horiz-adv-x="634" 
d="M340 522c157 0 264 -107 243 -273c-19 -159 -143 -259 -290 -259c-158 0 -264 107 -243 274c19 159 142 258 290 258zM342 426c-93 0 -168 -67 -179 -177c-11 -103 45 -162 129 -162c93 0 168 67 180 177c10 102 -46 162 -130 162z" />
    <glyph glyph-name="oacute" unicode="&#xf3;" horiz-adv-x="634" 
d="M411 596h-91l129 191h130zM340 522c157 0 264 -107 243 -273c-19 -159 -143 -259 -290 -259c-158 0 -264 107 -243 274c19 159 142 258 290 258zM342 426c-93 0 -168 -67 -179 -177c-11 -103 45 -162 129 -162c93 0 168 67 180 177c10 102 -46 162 -130 162z" />
    <glyph glyph-name="ocircumflex" unicode="&#xf4;" horiz-adv-x="634" 
d="M540 597h-93l-58 98l-96 -98h-98l149 173h108zM340 522c157 0 264 -107 243 -273c-19 -159 -143 -259 -290 -259c-158 0 -264 107 -243 274c19 159 142 258 290 258zM342 426c-93 0 -168 -67 -179 -177c-11 -103 45 -162 129 -162c93 0 168 67 180 177
c10 102 -46 162 -130 162z" />
    <glyph glyph-name="odieresis" unicode="&#xf6;" horiz-adv-x="634" 
d="M299 743c40 0 67 -32 60 -70c-6 -33 -35 -56 -66 -56c-40 0 -66 31 -59 70c5 32 34 56 65 56zM467 743c41 0 67 -32 60 -70c-6 -33 -34 -56 -66 -56c-40 0 -66 31 -59 70c5 32 34 56 65 56zM340 522c157 0 264 -107 243 -273c-19 -159 -143 -259 -290 -259
c-158 0 -264 107 -243 274c19 159 142 258 290 258zM342 426c-93 0 -168 -67 -179 -177c-11 -103 45 -162 129 -162c93 0 168 67 180 177c10 102 -46 162 -130 162z" />
    <glyph glyph-name="ograve" unicode="&#xf2;" horiz-adv-x="634" 
d="M409 596h-86l-100 191h125zM340 522c157 0 264 -107 243 -273c-19 -159 -143 -259 -290 -259c-158 0 -264 107 -243 274c19 159 142 258 290 258zM342 426c-93 0 -168 -67 -179 -177c-11 -103 45 -162 129 -162c93 0 168 67 180 177c10 102 -46 162 -130 162z" />
    <glyph glyph-name="oslash" unicode="&#xf8;" horiz-adv-x="634" 
d="M592 497l-55 -59c38 -47 56 -112 46 -189c-19 -159 -143 -259 -290 -259c-53 0 -100 12 -139 35l-59 -64l-57 46l60 65c-39 47 -58 113 -48 192c19 159 142 258 290 258c54 0 103 -13 142 -36l53 57zM163 249c-4 -37 1 -69 12 -94l236 254c-20 11 -43 17 -69 17
c-93 0 -168 -67 -179 -177zM472 264c4 36 -1 66 -12 91l-234 -253c19 -10 41 -15 66 -15c93 0 168 67 180 177z" />
    <glyph glyph-name="otilde" unicode="&#xf5;" horiz-adv-x="634" 
d="M317 747c67 0 74 -58 121 -58c36 0 56 21 61 50h63c-1 -77 -58 -135 -118 -135c-68 0 -75 58 -122 58c-35 0 -55 -22 -61 -51h-62c1 77 58 136 118 136zM340 522c157 0 264 -107 243 -273c-19 -159 -143 -259 -290 -259c-158 0 -264 107 -243 274c19 159 142 258 290 258
zM342 426c-93 0 -168 -67 -179 -177c-11 -103 45 -162 129 -162c93 0 168 67 180 177c10 102 -46 162 -130 162z" />
    <glyph glyph-name="oe" unicode="&#x153;" horiz-adv-x="1016" 
d="M754 522c151 0 241 -102 214 -257l-9 -51h-375c-6 -84 41 -127 119 -127c65 0 110 28 131 72l113 -8c-34 -99 -131 -161 -246 -161c-86 0 -155 32 -195 90c-53 -58 -129 -90 -213 -90c-158 0 -264 107 -243 274c19 159 142 258 290 258c88 0 160 -34 203 -93
c52 60 127 93 211 93zM292 87c90 0 163 63 179 167l1 10c10 102 -46 162 -130 162c-93 0 -168 -67 -179 -177c-11 -103 45 -162 129 -162zM753 426c-78 0 -137 -44 -156 -124h263c9 78 -28 124 -107 124z" />
    <glyph glyph-name="p" unicode="p" horiz-adv-x="652" 
d="M386 522c148 0 240 -107 216 -274c-21 -159 -130 -258 -274 -258c-85 0 -140 34 -164 79l-61 -324h-112l135 768h105l-11 -63c35 49 88 72 166 72zM362 425c-86 0 -150 -53 -165 -148l-5 -30c-16 -107 42 -161 126 -161c87 0 158 58 172 166c16 111 -44 173 -128 173z
" />
    <glyph glyph-name="q" unicode="q" horiz-adv-x="652" 
d="M326 522c88 0 145 -39 170 -89l15 80h106l-136 -768h-112l59 309c-34 -43 -85 -64 -160 -64c-148 0 -240 107 -216 274c21 159 130 258 274 258zM336 426c-87 0 -158 -58 -172 -166c-16 -111 44 -173 128 -173c86 0 150 53 165 148l5 30c16 107 -42 161 -126 161z" />
    <glyph glyph-name="r" unicode="r" horiz-adv-x="357" 
d="M380 519l-18 -109c-88 0 -153 -60 -166 -134l-49 -276h-112l91 513h105l-12 -69c27 40 80 75 161 75z" />
    <glyph glyph-name="s" unicode="s" horiz-adv-x="502" 
d="M277 522c126 0 184 -79 182 -165l-112 -3c4 42 -25 72 -80 72c-50 0 -81 -23 -87 -58c-8 -45 34 -49 97 -65c105 -26 173 -61 160 -156c-15 -99 -97 -157 -217 -157c-128 0 -197 67 -194 165l111 4c-2 -48 33 -72 89 -72c55 0 92 18 98 58c6 41 -21 55 -95 73
c-104 27 -177 50 -161 156c13 91 89 148 209 148z" />
    <glyph glyph-name="germandbls" unicode="&#xdf;" horiz-adv-x="645" 
d="M385 785c140 0 214 -70 198 -174s-106 -101 -120 -179c-15 -82 149 -97 121 -257c-21 -119 -124 -183 -245 -183c-51 0 -82 8 -108 17l31 91c20 -8 44 -14 71 -14c69 0 129 34 142 106c20 114 -140 140 -123 252c14 95 105 88 117 161c9 51 -22 86 -85 86
c-73 0 -125 -47 -137 -115l-102 -576h-112l104 586c21 122 119 199 248 199z" />
    <glyph glyph-name="t" unicode="t" horiz-adv-x="378" 
d="M248 416l-43 -233c-11 -67 24 -90 65 -90c26 0 41 3 53 6l-17 -102c-19 -3 -40 -5 -71 -5c-106 0 -167 54 -146 170l46 254h-95l17 97h96l32 174h112l-32 -174h130l-17 -97h-130z" />
    <glyph glyph-name="u" unicode="u" horiz-adv-x="596" 
d="M470 0h-103l12 71c-27 -43 -80 -81 -154 -81c-121 0 -182 78 -161 201l57 322h113l-53 -300c-13 -75 17 -118 80 -118c75 0 122 52 134 120l53 298h112z" />
    <glyph glyph-name="uacute" unicode="&#xfa;" horiz-adv-x="596" 
d="M402 596h-91l129 191h130zM470 0h-103l12 71c-27 -43 -80 -81 -154 -81c-121 0 -182 78 -161 201l57 322h113l-53 -300c-13 -75 17 -118 80 -118c75 0 122 52 134 120l53 298h112z" />
    <glyph glyph-name="ucircumflex" unicode="&#xfb;" horiz-adv-x="596" 
d="M531 597h-93l-58 98l-96 -98h-98l149 173h108zM470 0h-103l12 71c-27 -43 -80 -81 -154 -81c-121 0 -182 78 -161 201l57 322h113l-53 -300c-13 -75 17 -118 80 -118c75 0 122 52 134 120l53 298h112z" />
    <glyph glyph-name="udieresis" unicode="&#xfc;" horiz-adv-x="596" 
d="M290 743c40 0 67 -32 60 -70c-6 -33 -35 -56 -66 -56c-40 0 -66 31 -59 70c5 32 34 56 65 56zM458 743c41 0 67 -32 60 -70c-6 -33 -34 -56 -66 -56c-40 0 -66 31 -59 70c5 32 34 56 65 56zM470 0h-103l12 71c-27 -43 -80 -81 -154 -81c-121 0 -182 78 -161 201l57 322
h113l-53 -300c-13 -75 17 -118 80 -118c75 0 122 52 134 120l53 298h112z" />
    <glyph glyph-name="ugrave" unicode="&#xf9;" horiz-adv-x="596" 
d="M400 596h-86l-100 191h125zM470 0h-103l12 71c-27 -43 -80 -81 -154 -81c-121 0 -182 78 -161 201l57 322h113l-53 -300c-13 -75 17 -118 80 -118c75 0 122 52 134 120l53 298h112z" />
    <glyph glyph-name="v" unicode="v" horiz-adv-x="549" 
d="M274 0h-89l-132 513h119l81 -345l203 345h130z" />
    <glyph glyph-name="w" unicode="w" horiz-adv-x="832" 
d="M583 0h-96l-61 315l-173 -315h-95l-105 513h119l62 -338l181 338h79l67 -338l177 338h131z" />
    <glyph glyph-name="x" unicode="x" horiz-adv-x="532" 
d="M341 258l130 -258h-122l-93 181l-155 -181h-131l224 265l-124 248h120l87 -173l149 173h131z" />
    <glyph glyph-name="y" unicode="y" horiz-adv-x="560" 
d="M122 -255h-128l179 296l-116 472h123l76 -345l201 345h126z" />
    <glyph glyph-name="ydieresis" unicode="&#xff;" horiz-adv-x="560" 
d="M273 743c40 0 67 -32 60 -70c-6 -33 -35 -56 -66 -56c-40 0 -66 31 -59 70c5 32 34 56 65 56zM441 743c41 0 67 -32 60 -70c-6 -33 -34 -56 -66 -56c-40 0 -66 31 -59 70c5 32 34 56 65 56zM122 -255h-128l179 296l-116 472h123l76 -345l201 345h126z" />
    <glyph glyph-name="z" unicode="z" horiz-adv-x="450" 
d="M441 438l-289 -347h237l-15 -91h-386l13 74l292 347h-225l16 92h370z" />
    <glyph glyph-name="fi" unicode="&#xfb01;" horiz-adv-x="633" 
d="M390 782c24 0 36 -1 48 -4l-17 -96c-8 2 -18 2 -26 2c-62 0 -109 -40 -119 -101l-13 -70h126l-17 -97h-126l-73 -416h-112l73 416h-97l17 97h97l14 75c21 123 111 194 225 194zM576 761c44 0 72 -35 65 -77c-6 -36 -38 -63 -73 -63c-43 0 -72 34 -65 77c7 36 40 63 73 63
zM506 0h-112l91 513h112z" />
    <glyph glyph-name="fl" unicode="&#xfb02;" horiz-adv-x="633" 
d="M390 782c24 0 36 -1 48 -4l-17 -96c-8 2 -18 2 -26 2c-62 0 -109 -40 -119 -101l-13 -70h126l-17 -97h-126l-73 -416h-112l73 416h-97l17 97h97l14 75c21 123 111 194 225 194zM506 0h-112l137 777h112z" />
    <glyph glyph-name="ordfeminine" unicode="&#xaa;" horiz-adv-x="449" 
d="M302 756c112 0 166 -58 148 -164l-45 -255h-95l6 37c-28 -28 -70 -45 -126 -45c-82 0 -133 39 -122 116c13 88 93 118 173 124l105 8l4 23c9 49 -9 78 -54 78c-50 0 -80 -35 -87 -73l-98 3c13 73 82 148 191 148zM336 510l-76 -7c-49 -5 -82 -14 -87 -52
c-4 -31 22 -45 55 -45c54 0 92 29 104 85z" />
    <glyph glyph-name="ordmasculine" unicode="&#xba;" horiz-adv-x="509" 
d="M327 756c129 0 212 -87 193 -221c-17 -127 -117 -206 -236 -206c-129 0 -213 87 -194 221c17 126 118 206 237 206zM326 670c-69 0 -126 -50 -136 -133c-9 -78 33 -122 95 -122c69 0 127 50 137 132c9 78 -33 123 -96 123z" />
    <glyph glyph-name="Omega" unicode="&#x3a9;" horiz-adv-x="790" 
d="M469 722c212 0 308 -155 273 -353c-22 -127 -109 -233 -172 -285l168 3l-15 -87h-292l11 82c83 50 185 169 207 298c27 148 -35 255 -178 255c-153 0 -262 -114 -289 -270c-21 -121 33 -237 98 -287l-11 -78h-292l15 87l175 2c-46 52 -99 161 -76 294
c34 191 176 339 378 339z" />
    <glyph glyph-name="pi" unicode="&#x3c0;" horiz-adv-x="687" 
d="M619 530l81 -57c-32 -61 -80 -113 -168 -113h-18l-68 -230c-10 -31 -8 -44 14 -44c24 0 41 11 56 23l45 -72c-36 -30 -71 -45 -115 -45c-88 0 -115 58 -91 140l69 228h-110l-64 -211c-23 -74 -45 -116 -70 -152l-108 6c38 58 66 101 88 172l58 185h-24
c-42 0 -78 -25 -101 -49l-44 82c48 40 91 67 177 67h261c71 0 105 28 132 70z" />
    <glyph glyph-name="zero" unicode="0" horiz-adv-x="647" 
d="M393 758c169 0 263 -140 226 -391c-36 -244 -163 -377 -323 -377c-170 0 -264 140 -226 391c36 244 162 377 323 377zM390 652c-108 0 -173 -97 -202 -283c-27 -178 12 -273 110 -273c108 0 174 97 202 283c27 178 -13 273 -110 273z" />
    <glyph glyph-name="one" unicode="1" horiz-adv-x="381" 
d="M252 0h-119l105 588l-114 -76l-55 91l227 145h88z" />
    <glyph glyph-name="two" unicode="2" horiz-adv-x="539" 
d="M361 758c140 0 210 -90 188 -221c-21 -124 -91 -193 -184 -274l-179 -157h292l-18 -106h-452l16 90l255 232c91 82 138 142 150 221c11 65 -15 109 -79 109c-74 0 -116 -48 -132 -130l-118 7c28 148 119 229 261 229z" />
    <glyph glyph-name="three" unicode="3" horiz-adv-x="562" 
d="M355 758c145 0 217 -86 194 -218c-14 -82 -63 -130 -126 -157c59 -16 102 -78 86 -174c-24 -138 -129 -219 -265 -219c-156 0 -228 90 -211 227l118 -1c-7 -78 26 -120 99 -120c75 0 128 43 142 124c12 75 -30 116 -104 116h-79l18 100h70c63 0 122 40 134 111
c10 65 -22 105 -83 105c-70 0 -116 -46 -133 -120l-116 14c28 134 118 212 256 212z" />
    <glyph glyph-name="four" unicode="4" horiz-adv-x="599" 
d="M458 263h119l-19 -106h-119l-28 -157h-116l28 157h-313l17 98l418 493h98zM161 263h179l49 266z" />
    <glyph glyph-name="five" unicode="5" horiz-adv-x="564" 
d="M254 643l-34 -198c28 14 58 21 95 21c135 0 227 -87 200 -241c-21 -141 -121 -235 -268 -235c-151 0 -226 86 -213 217l118 3c-5 -71 31 -114 102 -114c83 0 131 56 143 137c14 77 -25 127 -95 127c-46 0 -76 -15 -110 -38l-113 2l75 424h424l-19 -105h-305z" />
    <glyph glyph-name="six" unicode="6" horiz-adv-x="599" 
d="M586 748l-244 -267c140 -8 236 -105 214 -252c-21 -146 -137 -239 -277 -239c-151 0 -257 100 -234 253c9 59 31 110 71 154l324 351h146zM436 241c14 95 -38 144 -111 144c-44 0 -84 -17 -115 -49c-24 -26 -39 -56 -45 -98c-12 -93 38 -142 113 -142
c84 0 147 62 158 145z" />
    <glyph glyph-name="seven" unicode="7" horiz-adv-x="540" 
d="M584 652l-439 -652h-138l438 643h-355l19 105h492z" />
    <glyph glyph-name="eight" unicode="8" horiz-adv-x="606" 
d="M375 758c137 0 230 -80 208 -212c-11 -71 -53 -123 -116 -154c57 -29 95 -94 81 -185c-22 -136 -138 -217 -276 -217c-147 0 -246 88 -224 232c13 84 64 145 138 179c-47 27 -78 82 -66 159c20 126 127 198 255 198zM369 652c-68 0 -124 -43 -132 -109
c-8 -63 33 -99 96 -99c67 0 123 40 132 107c8 63 -32 101 -96 101zM321 342c-81 0 -144 -52 -155 -129c-10 -72 37 -117 110 -117c82 0 145 50 155 127c9 73 -37 119 -110 119z" />
    <glyph glyph-name="nine" unicode="9" horiz-adv-x="599" 
d="M362 758c151 0 257 -100 234 -253c-9 -59 -31 -110 -71 -154l-324 -351h-146l244 267c-140 8 -236 105 -214 252c21 146 137 239 277 239zM316 363c44 0 84 17 115 49c24 26 39 56 45 98c12 93 -38 142 -113 142c-84 0 -147 -62 -158 -145c-14 -95 38 -144 111 -144z" />
    <glyph glyph-name="fraction" unicode="&#x2044;" horiz-adv-x="208" 
d="M-142 0h-117l650 748h117z" />
    <glyph glyph-name="asterisk" unicode="*" horiz-adv-x="349" 
d="M271 637l122 40l10 -60l-124 -37l57 -97l-55 -38l-52 100l-89 -101l-48 39l90 97l-110 37l30 60l109 -40l21 123h63z" />
    <glyph glyph-name="backslash" unicode="\" horiz-adv-x="390" 
d="M323 -67h-115l-111 815h115z" />
    <glyph glyph-name="periodcentered" unicode="&#xb7;" horiz-adv-x="240" 
d="M131 380c45 0 74 -36 67 -80c-7 -36 -40 -64 -75 -64c-45 0 -74 35 -66 79c6 36 39 65 74 65z" />
    <glyph glyph-name="bullet" unicode="&#x2022;" horiz-adv-x="349" 
d="M188 378c72 0 121 -59 108 -130c-12 -65 -72 -117 -135 -117c-73 0 -122 59 -109 131c12 64 72 116 136 116z" />
    <glyph glyph-name="colon" unicode=":" horiz-adv-x="227" 
d="M151 523c45 0 74 -36 67 -80c-7 -36 -40 -64 -75 -64c-45 0 -74 35 -66 79c6 36 39 65 74 65zM82 134c45 0 74 -36 67 -80c-7 -36 -40 -64 -75 -64c-45 0 -74 35 -66 79c6 36 39 65 74 65z" />
    <glyph glyph-name="comma" unicode="," horiz-adv-x="221" 
d="M81 133c48 0 70 -37 61 -87c-15 -83 -63 -153 -162 -202l2 52c38 24 66 57 82 96c-38 5 -61 38 -54 77c6 36 36 64 71 64z" />
    <glyph glyph-name="ellipsis" unicode="&#x2026;" horiz-adv-x="692" 
d="M83 134c45 0 74 -36 67 -80c-7 -36 -40 -64 -75 -64c-45 0 -74 35 -66 79c6 36 39 65 74 65zM309 134c45 0 74 -36 67 -80c-7 -36 -40 -64 -75 -64c-45 0 -74 35 -66 79c6 36 39 65 74 65zM536 134c45 0 74 -36 67 -80c-7 -36 -40 -64 -75 -64c-45 0 -74 35 -66 79
c6 36 39 65 74 65z" />
    <glyph glyph-name="exclam" unicode="!" horiz-adv-x="299" 
d="M202 214h-119l88 534h131zM119 134c45 0 74 -36 67 -80c-7 -36 -40 -64 -75 -64c-45 0 -74 35 -66 79c6 36 39 65 74 65z" />
    <glyph glyph-name="exclamdown" unicode="&#xa1;" horiz-adv-x="299" 
d="M178 366c-45 0 -74 36 -67 80c7 36 40 64 75 64c45 0 74 -35 66 -79c-6 -36 -39 -65 -74 -65zM95 286h119l-88 -534h-131z" />
    <glyph glyph-name="numbersign" unicode="#" horiz-adv-x="650" 
d="M580 551h115l-36 -90h-116l-74 -177h120l-37 -90h-120l-80 -194h-94l81 194h-135l-81 -194h-93l81 194h-115l37 90h114l74 177h-119l37 90h119l82 197h94l-83 -197h135l82 197h94zM315 461l-74 -177h135l73 177h-134z" />
    <glyph glyph-name="period" unicode="." horiz-adv-x="227" 
d="M83 134c45 0 74 -36 67 -80c-7 -36 -40 -64 -75 -64c-45 0 -74 35 -66 79c6 36 39 65 74 65z" />
    <glyph glyph-name="question" unicode="?" horiz-adv-x="516" 
d="M337 759c154 0 232 -92 208 -228c-14 -82 -62 -126 -126 -169c-61 -43 -96 -69 -107 -124l-4 -24h-118l5 32c12 71 54 119 119 166c57 38 101 68 112 129c12 66 -24 113 -96 113c-78 0 -127 -46 -146 -118l-116 11c30 131 132 212 269 212zM225 134c45 0 74 -36 67 -80
c-7 -36 -40 -64 -75 -64c-45 0 -74 35 -66 79c6 36 39 65 74 65z" />
    <glyph glyph-name="questiondown" unicode="&#xbf;" horiz-adv-x="516" 
d="M291 379c-45 0 -74 36 -67 80c7 36 40 64 75 64c45 0 74 -35 66 -79c-6 -36 -39 -65 -74 -65zM179 -246c-154 0 -232 92 -208 228c14 82 62 126 126 169c61 43 96 69 107 124l4 24h118l-5 -32c-12 -71 -54 -119 -119 -166c-57 -38 -101 -68 -112 -129
c-12 -66 24 -113 96 -113c78 0 127 46 146 118l116 -11c-30 -131 -132 -212 -269 -212z" />
    <glyph glyph-name="quotedbl" unicode="&#x22;" horiz-adv-x="370" 
d="M183 495h-88l33 253h112zM355 495h-88l33 253h112z" />
    <glyph glyph-name="quotesingle" unicode="'" horiz-adv-x="199" 
d="M185 495h-88l33 253h112z" />
    <glyph glyph-name="semicolon" unicode=";" horiz-adv-x="227" 
d="M151 523c45 0 74 -36 67 -80c-7 -36 -40 -64 -75 -64c-45 0 -74 35 -66 79c6 36 39 65 74 65zM87 133c48 0 70 -37 61 -87c-15 -83 -63 -153 -162 -202l2 52c38 24 66 57 82 96c-38 5 -61 38 -54 77c6 36 36 64 71 64z" />
    <glyph glyph-name="slash" unicode="/" horiz-adv-x="390" 
d="M71 -67h-120l399 815h120z" />
    <glyph glyph-name="underscore" unicode="_" horiz-adv-x="686" 
d="M578 -106h-596l19 106h596z" />
    <glyph glyph-name="braceleft" unicode="{" 
d="M317 624h-3c-64 0 -94 -45 -96 -155c1 -74 -4 -137 -80 -149c65 -11 55 -82 27 -163c-36 -102 -29 -140 35 -140h10l-16 -94h-3c-129 0 -198 81 -138 238c32 76 49 113 -19 113h-12l16 93h5c68 0 75 44 72 127c-8 150 80 224 209 224h10z" />
    <glyph glyph-name="braceright" unicode="}" 
d="M104 718h3c128 0 197 -81 138 -239c-33 -75 -50 -112 18 -112h12l-16 -93h-4c-68 0 -75 -45 -73 -127c8 -151 -80 -224 -208 -224h-10l16 94h3c65 0 94 45 96 154c-1 74 5 138 81 150c-65 11 -55 82 -28 163c36 102 29 140 -35 140h-10z" />
    <glyph glyph-name="bracketleft" unicode="[" horiz-adv-x="283" 
d="M326 624h-93l-107 -607h93l-16 -94h-206l140 795h206z" />
    <glyph glyph-name="bracketright" unicode="]" horiz-adv-x="283" 
d="M170 -77h-206l16 94h94l107 607h-94l17 94h206z" />
    <glyph glyph-name="parenleft" unicode="(" 
d="M241 734l94 -41c-74 -95 -146 -223 -174 -380c-26 -151 -4 -276 37 -372l-97 -29c-49 100 -80 242 -49 415c29 167 105 308 189 407z" />
    <glyph glyph-name="parenright" unicode=")" 
d="M99 700l99 28c48 -99 79 -242 48 -415c-29 -167 -106 -308 -189 -407l-94 41c74 96 146 223 174 380c26 151 3 277 -38 373z" />
    <glyph glyph-name="emdash" unicode="&#x2014;" horiz-adv-x="796" 
d="M743 209h-706l19 105h706z" />
    <glyph glyph-name="endash" unicode="&#x2013;" horiz-adv-x="564" 
d="M511 209h-474l19 105h474z" />
    <glyph glyph-name="hyphen" unicode="-" horiz-adv-x="404" 
d="M351 209h-314l19 105h314z" />
    <glyph glyph-name="guillemotleft" unicode="&#xab;" horiz-adv-x="553" 
d="M307 421l-168 -174l102 -165l-90 -53l-137 229l208 225zM566 421l-168 -174l102 -165l-90 -53l-137 229l208 225z" />
    <glyph glyph-name="guillemotright" unicode="&#xbb;" horiz-adv-x="553" 
d="M281 254l-207 -225l-86 62l169 174l-103 165l91 53zM539 254l-207 -225l-86 62l169 174l-103 165l91 53z" />
    <glyph glyph-name="guilsinglleft" unicode="&#x2039;" horiz-adv-x="320" 
d="M328 402l-178 -153l124 -153l-87 -65l-173 227l240 222z" />
    <glyph glyph-name="guilsinglright" unicode="&#x203a;" horiz-adv-x="320" 
d="M307 252l-240 -222l-74 78l178 153l-124 153l87 66z" />
    <glyph glyph-name="quotedblbase" unicode="&#x201e;" horiz-adv-x="386" 
d="M70 133c48 0 70 -37 61 -87c-15 -83 -63 -153 -162 -202l2 52c38 24 66 57 82 96c-38 5 -61 38 -54 77c6 36 36 64 71 64zM256 133c48 0 70 -37 61 -87c-15 -83 -63 -153 -162 -202l2 52c38 24 66 57 82 96c-38 5 -61 38 -54 77c6 36 36 64 71 64z" />
    <glyph glyph-name="quotedblleft" unicode="&#x201c;" horiz-adv-x="386" 
d="M83 561c15 83 63 153 162 202l-2 -52c-38 -24 -66 -57 -82 -96c38 -5 61 -38 54 -77c-6 -36 -36 -64 -71 -64c-48 0 -70 37 -61 87zM431 763l-2 -52c-38 -24 -66 -57 -82 -96c38 -5 61 -38 54 -77c-6 -36 -36 -64 -71 -64c-48 0 -70 37 -61 87c15 83 63 153 162 202z" />
    <glyph glyph-name="quotedblright" unicode="&#x201d;" horiz-adv-x="386" 
d="M179 761c48 0 70 -37 61 -87c-15 -83 -63 -153 -162 -202l2 52c38 24 66 57 82 96c-38 5 -61 38 -54 77c6 36 36 64 71 64zM365 761c48 0 70 -37 61 -87c-15 -83 -63 -153 -162 -202l2 52c38 24 66 57 82 96c-38 5 -61 38 -54 77c6 36 36 64 71 64z" />
    <glyph glyph-name="quoteleft" unicode="&#x2018;" horiz-adv-x="201" 
d="M247 763l-2 -52c-38 -24 -66 -57 -82 -96c38 -5 61 -38 54 -77c-6 -36 -36 -64 -71 -64c-48 0 -70 37 -61 87c15 83 63 153 162 202z" />
    <glyph glyph-name="quoteright" unicode="&#x2019;" horiz-adv-x="201" 
d="M182 761c48 0 70 -37 61 -87c-15 -83 -63 -153 -162 -202l2 52c38 24 66 57 82 96c-38 5 -61 38 -54 77c6 36 36 64 71 64z" />
    <glyph glyph-name="quotesinglbase" unicode="&#x201a;" horiz-adv-x="201" 
d="M71 133c48 0 70 -37 61 -87c-15 -83 -63 -153 -162 -202l2 52c38 24 66 57 82 96c-38 5 -61 38 -54 77c6 36 36 64 71 64z" />
    <glyph glyph-name="space" unicode=" " horiz-adv-x="233" 
 />
    <glyph glyph-name="CR" unicode="&#xd;" horiz-adv-x="600" 
 />
    <glyph glyph-name="Euro" unicode="&#x20ac;" horiz-adv-x="706" 
d="M526 652c-100 0 -187 -56 -238 -160h324l-36 -70h-314c-5 -18 -9 -36 -12 -56c-2 -15 -4 -29 -5 -43h275l-36 -70h-237c14 -103 81 -157 174 -157c72 0 131 26 176 60l43 -103c-68 -42 -133 -63 -224 -63c-154 0 -271 94 -289 263h-117l36 70h79c1 19 3 38 6 58
c2 14 5 28 8 41h-103l36 70h88c66 172 210 266 360 266c94 0 152 -24 204 -65l-48 -95c-36 35 -84 54 -150 54z" />
    <glyph glyph-name="cent" unicode="&#xa2;" horiz-adv-x="584" 
d="M279 87c74 0 126 41 145 101l109 -11c-32 -110 -120 -178 -229 -186l-20 -109h-94l21 116c-112 27 -179 122 -161 266c21 153 123 245 253 257l18 106h94l-19 -112c93 -21 154 -90 155 -190l-109 -7c0 68 -43 108 -110 108c-88 0 -155 -65 -170 -177
c-14 -105 38 -162 117 -162z" />
    <glyph glyph-name="dollar" unicode="$" horiz-adv-x="659" 
d="M637 543l-121 -5c6 75 -42 117 -121 117c-96 0 -153 -49 -162 -115c-10 -74 42 -90 143 -115c157 -37 252 -85 233 -221c-22 -144 -139 -209 -275 -214l-18 -108h-94l20 114c-127 21 -206 98 -192 220l121 4c-7 -79 54 -127 145 -127c90 0 159 35 171 115
c11 71 -48 93 -153 119c-134 33 -241 72 -221 219c16 111 105 206 264 212l19 107h93l-20 -114c113 -23 179 -98 168 -208z" />
    <glyph glyph-name="florin" unicode="&#x192;" horiz-adv-x="437" 
d="M435 786c69 0 109 -21 138 -45l-57 -87c-14 19 -37 32 -69 32c-50 0 -86 -26 -106 -83l-32 -90h138l-16 -94h-155l-199 -561h-116l198 561h-102l17 94h118l41 116c39 112 113 157 202 157z" />
    <glyph glyph-name="sterling" unicode="&#xa3;" horiz-adv-x="555" 
d="M575 564l-118 -4c9 56 -13 93 -71 93c-71 0 -108 -50 -115 -131l-10 -110h161l-16 -94h-154l-3 -38c-8 -89 -46 -139 -95 -177l350 3l-18 -106h-498l14 98c84 25 126 85 135 191l3 29h-101l17 94h92l9 91c14 163 86 255 239 255c131 1 197 -77 179 -194z" />
    <glyph glyph-name="yen" unicode="&#xa5;" horiz-adv-x="715" 
d="M466 351h105l-12 -70h-137l-14 -80h138l-13 -71h-138l-23 -130h-119l24 130h-138l13 71h138l14 80h-139l12 70h108l-182 397h131l145 -323l259 323h150z" />
    <glyph glyph-name="approxequal" unicode="&#x2248;" horiz-adv-x="539" 
d="M524 573l43 -81c-51 -54 -100 -84 -163 -84c-92 0 -113 60 -179 60c-54 0 -88 -19 -127 -59l-43 81c52 54 100 83 160 83c83 0 104 -60 178 -60c57 0 92 20 131 60zM482 334l44 -81c-52 -54 -102 -84 -165 -84c-92 0 -112 60 -178 60c-54 0 -88 -19 -127 -59l-43 80
c52 54 100 84 160 84c83 0 104 -61 178 -61c57 0 92 21 131 61z" />
    <glyph glyph-name="asciitilde" unicode="~" horiz-adv-x="539" 
d="M503 453l43 -81c-52 -54 -101 -84 -164 -84c-92 0 -113 60 -178 60c-54 0 -88 -19 -127 -59l-43 81c51 54 100 83 160 83c83 0 104 -60 178 -60c57 0 92 20 131 60z" />
    <glyph glyph-name="divide" unicode="&#xf7;" horiz-adv-x="547" 
d="M338 668c44 0 74 -35 66 -79c-6 -36 -39 -64 -75 -64c-44 0 -73 35 -65 78c6 37 39 65 74 65zM525 318h-483l19 106h483zM258 217c45 0 74 -35 67 -79c-7 -36 -40 -65 -76 -65c-44 0 -73 36 -65 80c6 36 39 64 74 64z" />
    <glyph glyph-name="equal" unicode="=" horiz-adv-x="547" 
d="M547 437h-483l19 106h483zM504 195h-483l19 106h483z" />
    <glyph glyph-name="greater" unicode="&#x3e;" horiz-adv-x="527" 
d="M519 369l-509 -247l20 127l268 120l-224 120l22 127z" />
    <glyph glyph-name="greaterequal" unicode="&#x2265;" horiz-adv-x="527" 
d="M535 460l-505 -222l18 115l261 107l-222 107l20 115zM468 80h-467l18 106h467z" />
    <glyph glyph-name="infinity" unicode="&#x221e;" horiz-adv-x="783" 
d="M598 500c114 0 178 -91 161 -202c-16 -105 -99 -189 -203 -189c-87 0 -136 52 -167 96l-15 23l-23 -24c-48 -48 -102 -80 -164 -80c-106 0 -162 83 -146 187c15 96 87 174 183 174c75 0 114 -36 149 -83l15 -23l20 20c60 58 112 101 190 101zM596 405
c-55 0 -91 -34 -135 -79l-24 -25l15 -24c25 -38 59 -73 105 -73c59 0 101 44 110 101c9 53 -21 100 -71 100zM225 393c-54 0 -90 -43 -98 -93c-8 -47 17 -85 63 -85c43 0 78 24 114 62l24 26l-13 23c-26 44 -55 67 -90 67z" />
    <glyph glyph-name="integral" unicode="&#x222b;" horiz-adv-x="338" 
d="M329 758c47 0 73 -8 98 -16l-27 -83c-16 5 -32 8 -47 8c-42 0 -66 -24 -74 -75l-107 -606c-19 -108 -66 -157 -149 -157c-48 0 -75 9 -98 16l26 83c16 -5 30 -8 44 -8c46 0 72 25 81 77l107 606c19 106 64 155 146 155z" />
    <glyph glyph-name="less" unicode="&#x3c;" horiz-adv-x="527" 
d="M537 489l-268 -120l224 -120l-22 -127l-423 247l509 247z" />
    <glyph glyph-name="lessequal" unicode="&#x2264;" horiz-adv-x="527" 
d="M550 567l-260 -107l222 -107l-21 -115l-427 222l504 222zM465 80h-467l18 106h467z" />
    <glyph glyph-name="logicalnot" unicode="&#xac;" horiz-adv-x="576" 
d="M516 157h-88l33 185h-410l16 88h498z" />
    <glyph glyph-name="notequal" unicode="&#x2260;" horiz-adv-x="547" 
d="M375 437l-66 -136h214l-19 -106h-246l-61 -125l-94 23l49 102h-131l19 106h163l66 136h-205l19 106h237l60 124l95 -23l-49 -101h140l-19 -106h-172z" />
    <glyph glyph-name="partialdiff" unicode="&#x2202;" horiz-adv-x="614" 
d="M356 758c224 0 253 -217 215 -467c-29 -195 -147 -302 -299 -302c-155 0 -252 102 -228 260c22 144 139 234 279 234c63 0 114 -21 149 -56c15 137 -8 225 -111 225c-72 0 -123 -28 -170 -69l-56 102c66 46 132 73 221 73zM273 95c86 0 159 61 173 149l1 9
c11 84 -36 137 -110 137c-85 0 -159 -62 -174 -154c-13 -86 32 -141 110 -141z" />
    <glyph glyph-name="percent" unicode="%" horiz-adv-x="863" 
d="M284 758c103 0 165 -74 144 -189c-19 -108 -98 -176 -191 -176c-102 0 -164 75 -144 190c19 108 99 175 191 175zM185 0h-111l645 748h111zM281 679c-53 0 -96 -39 -106 -108c-10 -61 19 -99 67 -99c52 0 95 40 105 109c10 62 -18 98 -66 98zM667 355
c102 0 164 -74 143 -189c-19 -108 -98 -176 -190 -176c-102 0 -165 75 -145 190c20 108 100 175 192 175zM662 276c-53 0 -95 -39 -106 -108c-11 -61 21 -99 68 -99c53 0 94 39 105 109c10 62 -19 98 -67 98z" />
    <glyph glyph-name="perthousand" unicode="&#x2030;" horiz-adv-x="1254" 
d="M284 758c103 0 165 -74 144 -189c-19 -108 -98 -176 -191 -176c-102 0 -164 75 -144 190c19 108 99 175 191 175zM185 0h-111l645 748h111zM281 679c-53 0 -96 -39 -106 -108c-10 -61 19 -99 67 -99c52 0 95 40 105 109c10 62 -18 98 -66 98zM667 355
c102 0 164 -74 143 -189c-19 -108 -98 -176 -190 -176c-102 0 -165 75 -145 190c20 108 100 175 192 175zM1059 355c102 0 164 -74 143 -189c-19 -108 -98 -176 -190 -176c-102 0 -165 75 -145 190c20 108 100 175 192 175zM662 276c-53 0 -95 -39 -106 -108
c-11 -61 21 -99 68 -99c53 0 94 39 105 109c10 62 -19 98 -67 98zM1054 276c-53 0 -95 -39 -106 -108c-11 -61 21 -99 68 -99c53 0 94 39 105 109c10 62 -19 98 -67 98z" />
    <glyph glyph-name="plus" unicode="+" horiz-adv-x="547" 
d="M356 421h187l-18 -102h-187l-33 -192h-110l34 192h-187l18 102h187l33 188h109z" />
    <glyph glyph-name="plusminus" unicode="&#xb1;" horiz-adv-x="547" 
d="M375 526h187l-18 -102h-187l-33 -192h-110l34 192h-187l18 102h187l33 188h109zM482 69h-483l19 105h483z" />
    <glyph glyph-name="product" unicode="&#x220f;" horiz-adv-x="651" 
d="M697 643h-100l-142 -807h-101l142 807h-204l-142 -807h-102l142 807h-99l19 105h606z" />
    <glyph glyph-name="radical" unicode="&#x221a;" horiz-adv-x="652" 
d="M697 655l-415 -732l-90 332l-122 -70l-42 89l227 129l60 -248l293 539z" />
    <glyph glyph-name="summation" unicode="&#x2211;" horiz-adv-x="600" 
d="M624 643h-372l156 -269l-248 -268h369l-18 -106h-508l14 87l267 287l-163 287l14 87h508z" />
    <glyph glyph-name="lozenge" unicode="&#x25ca;" horiz-adv-x="546" 
d="M529 346l-274 -401h-72l-135 401l275 402h71zM165 346l78 -240l169 240l-78 240z" />
    <glyph glyph-name="bar" unicode="|" horiz-adv-x="269" 
d="M133 -67h-112l144 815h112z" />
    <glyph glyph-name="at" unicode="@" horiz-adv-x="792" 
d="M435 609c215 0 353 -157 323 -370c-18 -126 -83 -198 -177 -198c-48 0 -80 17 -94 47c-33 -34 -74 -50 -129 -50c-117 0 -192 85 -173 217c17 125 103 202 212 202c67 0 110 -27 127 -61l11 48h82l-50 -284c-5 -30 6 -47 34 -47c40 0 76 38 92 141
c23 172 -86 290 -259 290c-175 0 -313 -127 -338 -305c-26 -180 101 -289 267 -289c72 0 129 19 181 49l17 -66c-60 -33 -127 -49 -202 -49c-219 0 -359 155 -328 370c29 208 202 355 404 355zM367 114c67 0 115 42 128 122l4 20c12 81 -28 124 -94 124
c-68 0 -120 -45 -132 -130c-14 -86 28 -136 94 -136z" />
    <glyph glyph-name="ampersand" unicode="&#x26;" horiz-adv-x="707" 
d="M610 -10l-104 106c-75 -73 -157 -105 -243 -105c-172 0 -246 97 -227 220c15 98 75 158 159 210c-29 40 -49 86 -40 147c19 127 115 190 237 190c118 0 195 -69 195 -181l-114 -1c1 56 -29 85 -81 85c-63 0 -109 -36 -120 -103c-10 -60 26 -98 72 -148l157 -156
c27 42 53 93 77 152l102 -35c-33 -77 -67 -140 -104 -192l107 -106zM264 92c60 0 117 25 170 78l-168 173l-7 7c-54 -35 -93 -77 -103 -143c-12 -71 30 -115 108 -115z" />
    <glyph glyph-name="paragraph" unicode="&#xb6;" horiz-adv-x="686" 
d="M738 664h-69l-129 -731h-87l129 731h-116l-129 -731h-87l78 441h-53c-123 0 -201 67 -180 195c20 120 111 179 234 179h424z" />
    <glyph glyph-name="copyright" unicode="&#xa9;" horiz-adv-x="588" 
d="M366 760c156 0 257 -115 236 -262c-20 -141 -144 -246 -291 -246c-157 0 -258 115 -237 263c20 141 144 245 292 245zM368 720c-126 0 -232 -90 -250 -212c-17 -123 64 -216 191 -216c123 0 231 90 248 213s-63 215 -189 215zM355 663c77 0 131 -44 131 -115l-63 -2
c0 40 -29 62 -66 62c-53 0 -95 -39 -106 -108c-10 -62 25 -94 69 -94c43 0 76 22 89 61l64 -7c-21 -68 -81 -110 -149 -110c-91 0 -151 64 -135 164c15 95 85 149 166 149z" />
    <glyph glyph-name="registered" unicode="&#xae;" horiz-adv-x="588" 
d="M366 760c156 0 257 -115 236 -262c-20 -141 -144 -246 -291 -246c-157 0 -258 115 -237 263c20 141 144 245 292 245zM557 505c17 123 -63 215 -189 215s-232 -90 -250 -212c-17 -123 64 -216 191 -216c123 0 231 90 248 213zM254 659h127c56 0 94 -37 82 -103
c-7 -42 -30 -69 -62 -82l40 -121h-67l-36 113h-55l-21 -113h-62zM402 563c5 31 -13 45 -41 45h-54l-16 -91h50c28 0 54 11 61 46z" />
    <glyph glyph-name="section" unicode="&#xa7;" horiz-adv-x="522" 
d="M514 603l-111 -2c7 48 -25 78 -80 78s-95 -25 -102 -76c-7 -47 24 -64 103 -82c110 -25 187 -52 172 -152c-9 -57 -40 -89 -87 -116c41 -24 61 -60 52 -122c-15 -97 -103 -159 -228 -159c-140 0 -220 63 -204 165l111 1c-7 -53 27 -87 90 -87c65 0 111 28 119 83
c8 49 -26 66 -111 85c-109 24 -188 52 -174 152c9 58 41 91 90 118c-36 23 -53 58 -44 117c14 94 97 152 212 152c132 0 205 -60 192 -155zM392 369c8 50 -37 62 -117 80l-35 8c-37 -22 -66 -44 -72 -86c-7 -49 37 -62 118 -80l34 -7c38 21 65 42 72 85z" />
    <glyph glyph-name="trademark" unicode="&#x2122;" horiz-adv-x="887" 
d="M431 668h-125l-49 -279h-83l49 279h-124l15 80h332zM847 389h-83l33 181l-136 -178h-38l-72 178l-33 -181h-83l64 359h67l92 -237l180 237h73z" />
    <glyph glyph-name="degree" unicode="&#xb0;" horiz-adv-x="360" 
d="M259 757c94 0 151 -56 134 -148l-3 -22c-16 -91 -84 -140 -168 -140c-94 0 -150 56 -133 148l4 22c15 92 81 140 166 140zM258 688c-47 0 -79 -27 -88 -77l-4 -17c-9 -50 15 -78 58 -78c46 0 82 29 90 79l2 16c9 52 -15 77 -58 77z" />
    <glyph glyph-name="asciicircum" unicode="^" horiz-adv-x="573" 
d="M563 373h-124l-91 215l-170 -215h-130l325 391z" />
    <glyph glyph-name="dagger" unicode="&#x2020;" horiz-adv-x="511" 
d="M363 548h181l-17 -101h-181l-91 -514h-112l91 514h-181l17 101h181l36 200h112z" />
    <glyph glyph-name="daggerdbl" unicode="&#x2021;" horiz-adv-x="511" 
d="M364 548h180l-17 -101h-180l-38 -212h181l-18 -102h-181l-36 -200h-112l36 200h-181l18 102h181l37 212h-180l17 101h180l36 200h112z" />
    <glyph glyph-name="acute" unicode="&#xb4;" horiz-adv-x="250" 
d="M163 596h-91l129 191h130z" />
    <glyph glyph-name="breve" unicode="&#x2d8;" horiz-adv-x="370" 
d="M348 743h91c-18 -102 -92 -147 -186 -147c-105 0 -169 54 -151 147h90c-8 -47 21 -69 65 -69c50 0 84 31 91 69z" />
    <glyph glyph-name="caron" unicode="&#x2c7;" horiz-adv-x="370" 
d="M301 595h-108l-88 172h93l58 -98l96 98h98z" />
    <glyph glyph-name="cedilla" unicode="&#xb8;" 
d="M112 10l-18 -52c59 -7 97 -42 86 -109c-11 -65 -76 -97 -136 -97c-50 0 -80 9 -104 21l24 66c15 -11 39 -17 65 -17c30 0 63 3 69 36c5 29 -16 46 -50 46c-17 0 -32 -1 -41 -3l47 109h58z" />
    <glyph glyph-name="circumflex" unicode="&#x2c6;" horiz-adv-x="370" 
d="M417 597h-93l-58 98l-96 -98h-98l149 173h108z" />
    <glyph glyph-name="dieresis" unicode="&#xa8;" horiz-adv-x="328" 
d="M157 743c40 0 67 -32 60 -70c-6 -33 -35 -56 -66 -56c-40 0 -66 31 -59 70c5 32 34 56 65 56zM325 743c41 0 67 -32 60 -70c-6 -33 -34 -56 -66 -56c-40 0 -66 31 -59 70c5 32 34 56 65 56z" />
    <glyph glyph-name="dotaccent" unicode="&#x2d9;" horiz-adv-x="173" 
d="M165 752c44 0 73 -35 65 -78c-6 -36 -39 -64 -74 -64c-44 0 -73 35 -65 78c6 36 40 64 74 64z" />
    <glyph glyph-name="grave" unicode="`" horiz-adv-x="250" 
d="M296 596h-86l-100 191h125z" />
    <glyph glyph-name="hungarumlaut" unicode="&#x2dd;" horiz-adv-x="380" 
d="M165 604h-91l92 167h109zM349 604h-91l92 167h109z" />
    <glyph glyph-name="macron" unicode="&#xaf;" horiz-adv-x="304" 
d="M357 628h-279l15 87h280z" />
    <glyph glyph-name="ogonek" unicode="&#x2db;" horiz-adv-x="233" 
d="M128 34l21 -30c-57 -28 -98 -54 -105 -94c-4 -24 12 -36 38 -36c24 0 40 6 57 14l8 -59c-24 -10 -49 -16 -81 -16c-69 0 -117 32 -106 96c11 62 76 96 168 125z" />
    <glyph glyph-name="ring" unicode="&#x2da;" horiz-adv-x="272" 
d="M225 809c72 0 121 -51 109 -120c-12 -63 -69 -107 -131 -107c-73 0 -122 51 -109 121c11 63 68 106 131 106zM216 744c-28 0 -51 -18 -55 -46s14 -50 45 -50c28 0 50 15 54 44c4 28 -14 52 -44 52z" />
    <glyph glyph-name="tilde" unicode="&#x2dc;" horiz-adv-x="371" 
d="M196 747c67 0 74 -58 121 -58c36 0 56 21 61 50h63c-1 -77 -58 -135 -118 -135c-68 0 -75 58 -122 58c-35 0 -55 -22 -61 -51h-62c1 77 58 136 118 136z" />
    <glyph glyph-name="A" unicode="A" horiz-adv-x="758" 
d="M701 0h-129l-42 174h-329l-103 -174h-130l448 748h101zM258 267h247l-71 297z" />
  </font>
</defs>
</svg>
