<?xml version="1.0" standalone="no"?>
<!DOCTYPE svg PUBLIC "-//W3C//DTD SVG 20010904//EN"
 "http://www.w3.org/TR/2001/REC-SVG-20010904/DTD/svg10.dtd">
<svg version="1.0" xmlns="http://www.w3.org/2000/svg"
 width="260.000000pt" height="260.000000pt" viewBox="0 0 260.000000 260.000000"
 preserveAspectRatio="xMidYMid meet">
<metadata>
Created by potrace 1.11, written by Peter Selinger 2001-2013
</metadata>
<g transform="translate(0.000000,260.000000) scale(0.100000,-0.100000)"
fill="#000000" stroke="none">
<path d="M1220 2502 c-293 -22 -561 -144 -770 -352 -228 -225 -353 -528 -351
-849 1 -216 36 -363 133 -553 168 -330 490 -568 858 -634 82 -15 308 -21 360
-9 14 3 45 8 70 11 60 8 216 58 296 95 104 48 243 147 334 239 178 178 293
398 336 643 14 85 21 295 10 343 -2 12 -7 45 -11 75 -9 71 -67 246 -112 334
-114 225 -310 419 -538 533 -85 42 -243 96 -310 105 -22 3 -58 9 -80 12 -46 7
-173 11 -225 7z m300 -67 c339 -70 620 -274 793 -575 58 -101 119 -288 135
-410 10 -80 6 -276 -6 -340 -19 -94 -21 -102 -47 -179 -123 -369 -431 -654
-813 -752 -203 -52 -441 -44 -643 22 -299 98 -572 344 -694 626 -39 90 -80
225 -90 298 -90 651 362 1244 1010 1323 96 12 265 6 355 -13z"/>
<path d="M1213 1895 c-96 -27 -185 -101 -222 -186 -17 -39 -28 -49 -79 -72
-216 -100 -274 -380 -116 -556 93 -104 309 -164 287 -81 -3 11 -6 20 -7 21 0
0 -21 2 -46 5 -177 20 -294 179 -259 351 20 100 120 205 208 219 34 5 39 10
55 57 25 70 105 148 174 171 158 53 326 -29 374 -182 10 -34 18 -43 43 -48 31
-7 97 -45 125 -73 82 -81 108 -222 60 -324 -46 -98 -130 -157 -245 -174 -46
-6 -58 -19 -43 -46 9 -17 18 -19 64 -14 127 13 250 107 294 224 22 58 30 166
15 213 -31 104 -112 200 -199 236 -37 16 -48 27 -67 69 -69 152 -252 236 -416
190z"/>
<path d="M1284 1510 c-57 -22 -71 -100 -27 -145 26 -25 28 -32 28 -126 0 -54
0 -99 -1 -99 -1 0 -26 16 -55 35 -30 19 -57 35 -61 35 -5 0 -8 12 -8 26 0 85
-92 124 -151 65 -16 -16 -29 -39 -29 -51 0 -36 29 -79 58 -87 41 -11 45 -11
68 3 18 11 30 7 100 -39 l79 -52 0 -129 c0 -126 0 -128 -27 -157 -58 -60 -22
-149 60 -149 82 0 116 96 53 152 l-31 28 0 125 0 125 43 26 c23 15 62 39 86
55 30 20 48 26 55 19 18 -18 74 -11 100 13 66 58 15 163 -74 151 -34 -5 -70
-49 -70 -83 0 -24 -10 -35 -63 -70 -35 -22 -66 -41 -70 -41 -4 0 -7 45 -7 100
0 89 2 100 20 110 11 6 26 23 34 39 36 69 -37 148 -110 121z m56 -55 c18 -21
3 -55 -25 -55 -15 0 -25 7 -28 22 -11 39 28 64 53 33z m-243 -186 c12 -12 6
-39 -11 -51 -16 -11 -23 -10 -40 8 -12 12 -13 20 -6 35 12 21 40 25 57 8z
m501 -2 c9 -10 7 -19 -4 -35 -19 -28 -40 -28 -54 -1 -20 37 31 69 58 36z
m-259 -516 c22 -14 5 -63 -21 -59 -30 4 -45 32 -29 52 15 18 29 20 50 7z"/>
</g>
</svg>
